<svg xmlns="http://www.w3.org/2000/svg" width="900" height="426" viewBox="0 0 900 426" font-family="-apple-system, BlinkMacSystemFont, 'Segoe UI', Helvetica, Arial, sans-serif" role="img" aria-label="CPU to resample in real time"><rect width="900" height="426" rx="8" fill="#1a1a19"/><text x="24.0" y="30.0" font-size="15" fill="#ffffff" text-anchor="start" font-weight="600">CPU to resample in real time (% of one core, lower is better)</text><circle cx="29" cy="52" r="5" fill="#3987e5"/><text x="40.0" y="56.0" font-size="12" fill="#ffffff" text-anchor="start" font-weight="400">Apple AudioConverter (Mastering, Max)</text><circle cx="319" cy="52" r="5" fill="#d95926"/><text x="330.0" y="56.0" font-size="12" fill="#ffffff" text-anchor="start" font-weight="400">r8brain-free-src</text><line x1="150.0" y1="72" x2="150.0" y2="382" stroke="#343431"/><text x="150.0" y="400.0" font-size="11" fill="#8f8e86" text-anchor="middle" font-weight="400">0%</text><line x1="230.0" y1="72" x2="230.0" y2="382" stroke="#343431"/><text x="230.0" y="400.0" font-size="11" fill="#8f8e86" text-anchor="middle" font-weight="400">0.5%</text><line x1="310.0" y1="72" x2="310.0" y2="382" stroke="#343431"/><text x="310.0" y="400.0" font-size="11" fill="#8f8e86" text-anchor="middle" font-weight="400">1%</text><line x1="390.0" y1="72" x2="390.0" y2="382" stroke="#343431"/><text x="390.0" y="400.0" font-size="11" fill="#8f8e86" text-anchor="middle" font-weight="400">1.5%</text><line x1="470.0" y1="72" x2="470.0" y2="382" stroke="#343431"/><text x="470.0" y="400.0" font-size="11" fill="#8f8e86" text-anchor="middle" font-weight="400">2%</text><line x1="550.0" y1="72" x2="550.0" y2="382" stroke="#343431"/><text x="550.0" y="400.0" font-size="11" fill="#8f8e86" text-anchor="middle" font-weight="400">2.5%</text><line x1="630.0" y1="72" x2="630.0" y2="382" stroke="#343431"/><text x="630.0" y="400.0" font-size="11" fill="#8f8e86" text-anchor="middle" font-weight="400">3%</text><line x1="710.0" y1="72" x2="710.0" y2="382" stroke="#343431"/><text x="710.0" y="400.0" font-size="11" fill="#8f8e86" text-anchor="middle" font-weight="400">3.5%</text><line x1="790.0" y1="72" x2="790.0" y2="382" stroke="#343431"/><text x="790.0" y="400.0" font-size="11" fill="#8f8e86" text-anchor="middle" font-weight="400">4%</text><text x="138.0" y="99.0" font-size="12" fill="#c3c2b7" text-anchor="end" font-weight="400">44.1 → 48 kHz</text><path d="M150,82 h138.4 a4,4 0 0 1 4,4 v4 a4,4 0 0 1 -4,4 h-138.4 z" fill="#3987e5"><title>44.1 → 48 kHz: Apple 0.890% of a core</title></path><path d="M150,96 h11.7 a4,4 0 0 1 4,4 v4 a4,4 0 0 1 -4,4 h-11.7 z" fill="#d95926"><title>44.1 → 48 kHz: r8brain 0.098% of a core</title></path><text x="300.4" y="99.0" font-size="12" fill="#ffffff" text-anchor="start" font-weight="600">9× less</text><text x="138.0" y="137.0" font-size="12" fill="#c3c2b7" text-anchor="end" font-weight="400">48 → 44.1 kHz</text><path d="M150,120 h140.0 a4,4 0 0 1 4,4 v4 a4,4 0 0 1 -4,4 h-140.0 z" fill="#3987e5"><title>48 → 44.1 kHz: Apple 0.900% of a core</title></path><path d="M150,134 h14.6 a4,4 0 0 1 4,4 v4 a4,4 0 0 1 -4,4 h-14.6 z" fill="#d95926"><title>48 → 44.1 kHz: r8brain 0.116% of a core</title></path><text x="302.0" y="137.0" font-size="12" fill="#ffffff" text-anchor="start" font-weight="600">8× less</text><text x="138.0" y="175.0" font-size="12" fill="#c3c2b7" text-anchor="end" font-weight="400">44.1 → 96 kHz</text><path d="M150,158 h279.4 a4,4 0 0 1 4,4 v4 a4,4 0 0 1 -4,4 h-279.4 z" fill="#3987e5"><title>44.1 → 96 kHz: Apple 1.771% of a core</title></path><path d="M150,172 h16.3 a4,4 0 0 1 4,4 v4 a4,4 0 0 1 -4,4 h-16.3 z" fill="#d95926"><title>44.1 → 96 kHz: r8brain 0.127% of a core</title></path><text x="441.4" y="175.0" font-size="12" fill="#ffffff" text-anchor="start" font-weight="600">14× less</text><text x="138.0" y="213.0" font-size="12" fill="#c3c2b7" text-anchor="end" font-weight="400">96 → 44.1 kHz</text><path d="M150,196 h277.3 a4,4 0 0 1 4,4 v4 a4,4 0 0 1 -4,4 h-277.3 z" fill="#3987e5"><title>96 → 44.1 kHz: Apple 1.758% of a core</title></path><path d="M150,210 h15.4 a4,4 0 0 1 4,4 v4 a4,4 0 0 1 -4,4 h-15.4 z" fill="#d95926"><title>96 → 44.1 kHz: r8brain 0.121% of a core</title></path><text x="439.3" y="213.0" font-size="12" fill="#ffffff" text-anchor="start" font-weight="600">15× less</text><text x="138.0" y="251.0" font-size="12" fill="#c3c2b7" text-anchor="end" font-weight="400">88.2 → 44.1 kHz</text><path d="M150,234 h251.2 a4,4 0 0 1 4,4 v4 a4,4 0 0 1 -4,4 h-251.2 z" fill="#3987e5"><title>88.2 → 44.1 kHz: Apple 1.595% of a core</title></path><path d="M150,248 h5.8 a4,4 0 0 1 4,4 v4 a4,4 0 0 1 -4,4 h-5.8 z" fill="#d95926"><title>88.2 → 44.1 kHz: r8brain 0.061% of a core</title></path><text x="413.2" y="251.0" font-size="12" fill="#ffffff" text-anchor="start" font-weight="600">26× less</text><text x="138.0" y="289.0" font-size="12" fill="#c3c2b7" text-anchor="end" font-weight="400">96 → 48 kHz</text><path d="M150,272 h274.7 a4,4 0 0 1 4,4 v4 a4,4 0 0 1 -4,4 h-274.7 z" fill="#3987e5"><title>96 → 48 kHz: Apple 1.742% of a core</title></path><path d="M150,286 h6.9 a4,4 0 0 1 4,4 v4 a4,4 0 0 1 -4,4 h-6.9 z" fill="#d95926"><title>96 → 48 kHz: r8brain 0.068% of a core</title></path><text x="436.7" y="289.0" font-size="12" fill="#ffffff" text-anchor="start" font-weight="600">26× less</text><text x="138.0" y="327.0" font-size="12" fill="#c3c2b7" text-anchor="end" font-weight="400">192 → 48 kHz</text><path d="M150,310 h554.2 a4,4 0 0 1 4,4 v4 a4,4 0 0 1 -4,4 h-554.2 z" fill="#3987e5"><title>192 → 48 kHz: Apple 3.489% of a core</title></path><path d="M150,324 h14.4 a4,4 0 0 1 4,4 v4 a4,4 0 0 1 -4,4 h-14.4 z" fill="#d95926"><title>192 → 48 kHz: r8brain 0.115% of a core</title></path><text x="716.2" y="327.0" font-size="12" fill="#ffffff" text-anchor="start" font-weight="600">30× less</text><text x="138.0" y="365.0" font-size="12" fill="#c3c2b7" text-anchor="end" font-weight="400">44.1 → 192 kHz</text><path d="M150,348 h560.6 a4,4 0 0 1 4,4 v4 a4,4 0 0 1 -4,4 h-560.6 z" fill="#3987e5"><title>44.1 → 192 kHz: Apple 3.529% of a core</title></path><path d="M150,362 h24.8 a4,4 0 0 1 4,4 v4 a4,4 0 0 1 -4,4 h-24.8 z" fill="#d95926"><title>44.1 → 192 kHz: r8brain 0.180% of a core</title></path><text x="722.6" y="365.0" font-size="12" fill="#ffffff" text-anchor="start" font-weight="600">20× less</text></svg>