<svg xmlns="http://www.w3.org/2000/svg" width="900" height="308" viewBox="0 0 900 308" font-family="-apple-system, BlinkMacSystemFont, 'Segoe UI', Helvetica, Arial, sans-serif" role="img" aria-label="Accuracy on the official ISO MP3 test streams, per decoder, best first"><rect width="900" height="308" rx="8" fill="#fcfcfb"/><text x="24.0" y="30.0" font-size="15" fill="#0b0b0b" text-anchor="start" font-weight="600">Accuracy on the official ISO MP3 test (higher is better)</text><text x="24.0" y="50.0" font-size="12" fill="#52514e" text-anchor="start" font-weight="400">Times more accurate than the ISO's “full accuracy” limit, on the worst of seven ISO test streams. 1× is right on the limit.</text><circle cx="29" cy="72" r="5" fill="#8a8984"/><text x="40.0" y="76.0" font-size="12" fill="#0b0b0b" text-anchor="start" font-weight="400">Other decoders</text><circle cx="156.39999999999998" cy="72" r="5" fill="#eb6834"/><text x="167.4" y="76.0" font-size="12" fill="#0b0b0b" text-anchor="start" font-weight="400">Vibe (dr_mp3)</text><circle cx="277.2" cy="72" r="5" fill="#2a78d6"/><text x="288.2" y="76.0" font-size="12" fill="#0b0b0b" text-anchor="start" font-weight="400">Apple's built-in decoder</text><line x1="250.0" y1="96" x2="250.0" y2="264" stroke="#e6e5e0"/><text x="250.0" y="280.0" font-size="11" fill="#8a8984" text-anchor="middle" font-weight="400">0×</text><line x1="340.0" y1="96" x2="340.0" y2="264" stroke="#e6e5e0"/><text x="340.0" y="280.0" font-size="11" fill="#8a8984" text-anchor="middle" font-weight="400">20×</text><line x1="430.0" y1="96" x2="430.0" y2="264" stroke="#e6e5e0"/><text x="430.0" y="280.0" font-size="11" fill="#8a8984" text-anchor="middle" font-weight="400">40×</text><line x1="520.0" y1="96" x2="520.0" y2="264" stroke="#e6e5e0"/><text x="520.0" y="280.0" font-size="11" fill="#8a8984" text-anchor="middle" font-weight="400">60×</text><line x1="610.0" y1="96" x2="610.0" y2="264" stroke="#e6e5e0"/><text x="610.0" y="280.0" font-size="11" fill="#8a8984" text-anchor="middle" font-weight="400">80×</text><line x1="700.0" y1="96" x2="700.0" y2="264" stroke="#e6e5e0"/><text x="700.0" y="280.0" font-size="11" fill="#8a8984" text-anchor="middle" font-weight="400">100×</text><line x1="790.0" y1="96" x2="790.0" y2="264" stroke="#e6e5e0"/><text x="790.0" y="280.0" font-size="11" fill="#8a8984" text-anchor="middle" font-weight="400">120×</text><text x="238.0" y="114.0" font-size="12" fill="#52514e" text-anchor="end" font-weight="400">FFmpeg</text><path d="M250,104.0 h500.0 a4,4 0 0 1 4,4 v4.0 a4,4 0 0 1 -4,4 h-500.0 z" fill="#8a8984"/><text x="760.0" y="114.5" font-size="11" fill="#52514e" text-anchor="start" font-weight="400">112×</text><text x="238.0" y="142.0" font-size="12" fill="#52514e" text-anchor="end" font-weight="400">libmad</text><path d="M250,132.0 h473.0 a4,4 0 0 1 4,4 v4.0 a4,4 0 0 1 -4,4 h-473.0 z" fill="#8a8984"/><text x="733.0" y="142.5" font-size="11" fill="#52514e" text-anchor="start" font-weight="400">106×</text><text x="238.0" y="170.0" font-size="12" fill="#52514e" text-anchor="end" font-weight="400">mpg123</text><path d="M250,160.0 h473.0 a4,4 0 0 1 4,4 v4.0 a4,4 0 0 1 -4,4 h-473.0 z" fill="#8a8984"/><text x="733.0" y="170.5" font-size="11" fill="#52514e" text-anchor="start" font-weight="400">106×</text><text x="238.0" y="198.0" font-size="12" fill="#52514e" text-anchor="end" font-weight="400">Vibe (dr_mp3)</text><path d="M250,188.0 h468.5 a4,4 0 0 1 4,4 v4.0 a4,4 0 0 1 -4,4 h-468.5 z" fill="#eb6834"/><text x="728.5" y="198.5" font-size="11" fill="#52514e" text-anchor="start" font-weight="400">105×</text><text x="238.0" y="226.0" font-size="12" fill="#52514e" text-anchor="end" font-weight="400">BASS</text><path d="M250,216.0 h446.0 a4,4 0 0 1 4,4 v4.0 a4,4 0 0 1 -4,4 h-446.0 z" fill="#8a8984"/><text x="706.0" y="226.5" font-size="11" fill="#52514e" text-anchor="start" font-weight="400">100×</text><text x="238.0" y="254.0" font-size="12" fill="#52514e" text-anchor="end" font-weight="400">Apple (Apple silicon)</text><path d="M250,244.0 h2.2 a2.25,2.25 0 0 1 2.25,2.25 v7.5 a2.25,2.25 0 0 1 -2.25,2.25 h-2.2 z" fill="#2a78d6"/><text x="260.5" y="254.5" font-size="11" fill="#52514e" text-anchor="start" font-weight="400">1×, on the limit</text></svg>