<svg xmlns="http://www.w3.org/2000/svg" width="900" height="558" viewBox="0 0 900 558" font-family="-apple-system, BlinkMacSystemFont, 'Segoe UI', Helvetica, Arial, sans-serif" role="img" aria-label="CPU to resample in real time for Apple, r8brain and BASS"><rect width="900" height="558" rx="8" fill="#1a1a19"/><text x="24.0" y="30.0" font-size="15" fill="#ffffff" text-anchor="start" font-weight="600">CPU to resample in real time (% of one core, lower is better)</text><text x="24.0" y="50.0" font-size="12" fill="#c3c2b7" text-anchor="start" font-weight="400">Standalone benchmark: stereo, 120 s of output per rate pair, median of three runs, Apple silicon.</text><circle cx="29" cy="72" r="5" fill="#3987e5"/><text x="40.0" y="76.0" font-size="12" fill="#ffffff" text-anchor="start" font-weight="400">Apple (Mastering, Max)</text><circle cx="226.6" cy="72" r="5" fill="#d95926"/><text x="237.6" y="76.0" font-size="12" fill="#ffffff" text-anchor="start" font-weight="400">r8brain (shipped)</text><circle cx="390.2" cy="72" r="5" fill="#199e70"/><text x="401.2" y="76.0" font-size="12" fill="#ffffff" text-anchor="start" font-weight="400">BASS 16-point (default)</text><circle cx="594.6" cy="72" r="5" fill="#c98500"/><text x="605.6" y="76.0" font-size="12" fill="#ffffff" text-anchor="start" font-weight="400">BASS 256-point (highest)</text><line x1="150.0" y1="96" x2="150.0" y2="528" stroke="#343431"/><text x="150.0" y="544.0" font-size="11" fill="#8f8e86" text-anchor="middle" font-weight="400">0%</text><line x1="280.0" y1="96" x2="280.0" y2="528" stroke="#343431"/><text x="280.0" y="544.0" font-size="11" fill="#8f8e86" text-anchor="middle" font-weight="400">1%</text><line x1="410.0" y1="96" x2="410.0" y2="528" stroke="#343431"/><text x="410.0" y="544.0" font-size="11" fill="#8f8e86" text-anchor="middle" font-weight="400">2%</text><line x1="540.0" y1="96" x2="540.0" y2="528" stroke="#343431"/><text x="540.0" y="544.0" font-size="11" fill="#8f8e86" text-anchor="middle" font-weight="400">3%</text><line x1="670.0" y1="96" x2="670.0" y2="528" stroke="#343431"/><text x="670.0" y="544.0" font-size="11" fill="#8f8e86" text-anchor="middle" font-weight="400">4%</text><line x1="800.0" y1="96" x2="800.0" y2="528" stroke="#343431"/><text x="800.0" y="544.0" font-size="11" fill="#8f8e86" text-anchor="middle" font-weight="400">5%</text><text x="138.0" y="119.0" font-size="12" fill="#c3c2b7" text-anchor="end" font-weight="400">44.1 → 48 kHz</text><path d="M150,96 h108.3 a4,4 0 0 1 4,4 v0.0 a4,4 0 0 1 -4,4 h-108.3 z" fill="#3987e5"><title>44.1 → 48 kHz: Apple 0.864% of one core</title></path><text x="268.3" y="103.5" font-size="10" fill="#c3c2b7" text-anchor="start" font-weight="400">0.86%</text><path d="M150,106 h7.7 a4,4 0 0 1 4,4 v0.0 a4,4 0 0 1 -4,4 h-7.7 z" fill="#d95926"><title>44.1 → 48 kHz: r8brain 0.090% of one core</title></path><text x="167.7" y="113.5" font-size="10" fill="#c3c2b7" text-anchor="start" font-weight="400">0.09%</text><path d="M150,116 h6.5 a4,4 0 0 1 4,4 v0.0 a4,4 0 0 1 -4,4 h-6.5 z" fill="#199e70"><title>44.1 → 48 kHz: BASS 16-pt 0.081% of one core</title></path><text x="166.5" y="123.5" font-size="10" fill="#c3c2b7" text-anchor="start" font-weight="400">0.08%</text><path d="M150,126 h146.7 a4,4 0 0 1 4,4 v0.0 a4,4 0 0 1 -4,4 h-146.7 z" fill="#c98500"><title>44.1 → 48 kHz: BASS 256-pt 1.159% of one core</title></path><text x="306.7" y="133.5" font-size="10" fill="#c3c2b7" text-anchor="start" font-weight="400">1.16%</text><text x="138.0" y="173.0" font-size="12" fill="#c3c2b7" text-anchor="end" font-weight="400">48 → 44.1 kHz</text><path d="M150,150 h110.8 a4,4 0 0 1 4,4 v0.0 a4,4 0 0 1 -4,4 h-110.8 z" fill="#3987e5"><title>48 → 44.1 kHz: Apple 0.883% of one core</title></path><text x="270.8" y="157.5" font-size="10" fill="#c3c2b7" text-anchor="start" font-weight="400">0.88%</text><path d="M150,160 h8.5 a4,4 0 0 1 4,4 v0.0 a4,4 0 0 1 -4,4 h-8.5 z" fill="#d95926"><title>48 → 44.1 kHz: r8brain 0.096% of one core</title></path><text x="168.5" y="167.5" font-size="10" fill="#c3c2b7" text-anchor="start" font-weight="400">0.10%</text><path d="M150,170 h5.5 a4,4 0 0 1 4,4 v0.0 a4,4 0 0 1 -4,4 h-5.5 z" fill="#199e70"><title>48 → 44.1 kHz: BASS 16-pt 0.073% of one core</title></path><text x="165.5" y="177.5" font-size="10" fill="#c3c2b7" text-anchor="start" font-weight="400">0.07%</text><path d="M150,180 h132.2 a4,4 0 0 1 4,4 v0.0 a4,4 0 0 1 -4,4 h-132.2 z" fill="#c98500"><title>48 → 44.1 kHz: BASS 256-pt 1.048% of one core</title></path><text x="292.2" y="187.5" font-size="10" fill="#c3c2b7" text-anchor="start" font-weight="400">1.05%</text><text x="138.0" y="227.0" font-size="12" fill="#c3c2b7" text-anchor="end" font-weight="400">44.1 → 96 kHz</text><path d="M150,204 h223.6 a4,4 0 0 1 4,4 v0.0 a4,4 0 0 1 -4,4 h-223.6 z" fill="#3987e5"><title>44.1 → 96 kHz: Apple 1.751% of one core</title></path><text x="383.6" y="211.5" font-size="10" fill="#c3c2b7" text-anchor="start" font-weight="400">1.75%</text><path d="M150,214 h11.7 a4,4 0 0 1 4,4 v0.0 a4,4 0 0 1 -4,4 h-11.7 z" fill="#d95926"><title>44.1 → 96 kHz: r8brain 0.121% of one core</title></path><text x="171.7" y="221.5" font-size="10" fill="#c3c2b7" text-anchor="start" font-weight="400">0.12%</text><path d="M150,224 h16.4 a4,4 0 0 1 4,4 v0.0 a4,4 0 0 1 -4,4 h-16.4 z" fill="#199e70"><title>44.1 → 96 kHz: BASS 16-pt 0.157% of one core</title></path><text x="176.4" y="231.5" font-size="10" fill="#c3c2b7" text-anchor="start" font-weight="400">0.16%</text><path d="M150,234 h291.6 a4,4 0 0 1 4,4 v0.0 a4,4 0 0 1 -4,4 h-291.6 z" fill="#c98500"><title>44.1 → 96 kHz: BASS 256-pt 2.274% of one core</title></path><text x="451.6" y="241.5" font-size="10" fill="#c3c2b7" text-anchor="start" font-weight="400">2.27%</text><text x="138.0" y="281.0" font-size="12" fill="#c3c2b7" text-anchor="end" font-weight="400">96 → 44.1 kHz</text><path d="M150,258 h224.7 a4,4 0 0 1 4,4 v0.0 a4,4 0 0 1 -4,4 h-224.7 z" fill="#3987e5"><title>96 → 44.1 kHz: Apple 1.759% of one core</title></path><text x="384.7" y="265.5" font-size="10" fill="#c3c2b7" text-anchor="start" font-weight="400">1.76%</text><path d="M150,268 h11.5 a4,4 0 0 1 4,4 v0.0 a4,4 0 0 1 -4,4 h-11.5 z" fill="#d95926"><title>96 → 44.1 kHz: r8brain 0.119% of one core</title></path><text x="171.5" y="275.5" font-size="10" fill="#c3c2b7" text-anchor="start" font-weight="400">0.12%</text><path d="M150,278 h6.3 a4,4 0 0 1 4,4 v0.0 a4,4 0 0 1 -4,4 h-6.3 z" fill="#199e70"><title>96 → 44.1 kHz: BASS 16-pt 0.079% of one core</title></path><text x="166.3" y="285.5" font-size="10" fill="#c3c2b7" text-anchor="start" font-weight="400">0.08%</text><path d="M150,288 h134.2 a4,4 0 0 1 4,4 v0.0 a4,4 0 0 1 -4,4 h-134.2 z" fill="#c98500"><title>96 → 44.1 kHz: BASS 256-pt 1.063% of one core</title></path><text x="294.2" y="295.5" font-size="10" fill="#c3c2b7" text-anchor="start" font-weight="400">1.06%</text><text x="138.0" y="335.0" font-size="12" fill="#c3c2b7" text-anchor="end" font-weight="400">88.2 → 44.1 kHz</text><path d="M150,312 h202.4 a4,4 0 0 1 4,4 v0.0 a4,4 0 0 1 -4,4 h-202.4 z" fill="#3987e5"><title>88.2 → 44.1 kHz: Apple 1.588% of one core</title></path><text x="362.4" y="319.5" font-size="10" fill="#c3c2b7" text-anchor="start" font-weight="400">1.59%</text><path d="M150,322 h3.8 a3.8349999999999937,3.8349999999999937 0 0 1 3.8349999999999937,3.8349999999999937 v0.3 a3.8349999999999937,3.8349999999999937 0 0 1 -3.8349999999999937,3.8349999999999937 h-3.8 z" fill="#d95926"><title>88.2 → 44.1 kHz: r8brain 0.059% of one core</title></path><text x="163.7" y="329.5" font-size="10" fill="#c3c2b7" text-anchor="start" font-weight="400">0.06%</text><path d="M150,332 h6.0 a4,4 0 0 1 4,4 v0.0 a4,4 0 0 1 -4,4 h-6.0 z" fill="#199e70"><title>88.2 → 44.1 kHz: BASS 16-pt 0.077% of one core</title></path><text x="166.0" y="339.5" font-size="10" fill="#c3c2b7" text-anchor="start" font-weight="400">0.08%</text><path d="M150,342 h132.8 a4,4 0 0 1 4,4 v0.0 a4,4 0 0 1 -4,4 h-132.8 z" fill="#c98500"><title>88.2 → 44.1 kHz: BASS 256-pt 1.052% of one core</title></path><text x="292.8" y="349.5" font-size="10" fill="#c3c2b7" text-anchor="start" font-weight="400">1.05%</text><text x="138.0" y="389.0" font-size="12" fill="#c3c2b7" text-anchor="end" font-weight="400">96 → 48 kHz</text><path d="M150,366 h221.9 a4,4 0 0 1 4,4 v0.0 a4,4 0 0 1 -4,4 h-221.9 z" fill="#3987e5"><title>96 → 48 kHz: Apple 1.738% of one core</title></path><text x="381.9" y="373.5" font-size="10" fill="#c3c2b7" text-anchor="start" font-weight="400">1.74%</text><path d="M150,376 h4.4 a4,4 0 0 1 4,4 v0.0 a4,4 0 0 1 -4,4 h-4.4 z" fill="#d95926"><title>96 → 48 kHz: r8brain 0.065% of one core</title></path><text x="164.4" y="383.5" font-size="10" fill="#c3c2b7" text-anchor="start" font-weight="400">0.07%</text><path d="M150,386 h6.9 a4,4 0 0 1 4,4 v0.0 a4,4 0 0 1 -4,4 h-6.9 z" fill="#199e70"><title>96 → 48 kHz: BASS 16-pt 0.084% of one core</title></path><text x="166.9" y="393.5" font-size="10" fill="#c3c2b7" text-anchor="start" font-weight="400">0.08%</text><path d="M150,396 h145.2 a4,4 0 0 1 4,4 v0.0 a4,4 0 0 1 -4,4 h-145.2 z" fill="#c98500"><title>96 → 48 kHz: BASS 256-pt 1.148% of one core</title></path><text x="305.2" y="403.5" font-size="10" fill="#c3c2b7" text-anchor="start" font-weight="400">1.15%</text><text x="138.0" y="443.0" font-size="12" fill="#c3c2b7" text-anchor="end" font-weight="400">192 → 48 kHz</text><path d="M150,420 h448.5 a4,4 0 0 1 4,4 v0.0 a4,4 0 0 1 -4,4 h-448.5 z" fill="#3987e5"><title>192 → 48 kHz: Apple 3.481% of one core</title></path><text x="608.5" y="427.5" font-size="10" fill="#c3c2b7" text-anchor="start" font-weight="400">3.48%</text><path d="M150,430 h10.0 a4,4 0 0 1 4,4 v0.0 a4,4 0 0 1 -4,4 h-10.0 z" fill="#d95926"><title>192 → 48 kHz: r8brain 0.108% of one core</title></path><text x="170.0" y="437.5" font-size="10" fill="#c3c2b7" text-anchor="start" font-weight="400">0.11%</text><path d="M150,440 h7.8 a4,4 0 0 1 4,4 v0.0 a4,4 0 0 1 -4,4 h-7.8 z" fill="#199e70"><title>192 → 48 kHz: BASS 16-pt 0.091% of one core</title></path><text x="167.8" y="447.5" font-size="10" fill="#c3c2b7" text-anchor="start" font-weight="400">0.09%</text><path d="M150,450 h146.8 a4,4 0 0 1 4,4 v0.0 a4,4 0 0 1 -4,4 h-146.8 z" fill="#c98500"><title>192 → 48 kHz: BASS 256-pt 1.160% of one core</title></path><text x="306.8" y="457.5" font-size="10" fill="#c3c2b7" text-anchor="start" font-weight="400">1.16%</text><text x="138.0" y="497.0" font-size="12" fill="#c3c2b7" text-anchor="end" font-weight="400">44.1 → 192 kHz</text><path d="M150,474 h455.6 a4,4 0 0 1 4,4 v0.0 a4,4 0 0 1 -4,4 h-455.6 z" fill="#3987e5"><title>44.1 → 192 kHz: Apple 3.535% of one core</title></path><text x="615.6" y="481.5" font-size="10" fill="#c3c2b7" text-anchor="start" font-weight="400">3.54%</text><path d="M150,484 h18.9 a4,4 0 0 1 4,4 v0.0 a4,4 0 0 1 -4,4 h-18.9 z" fill="#d95926"><title>44.1 → 192 kHz: r8brain 0.176% of one core</title></path><text x="178.9" y="491.5" font-size="10" fill="#c3c2b7" text-anchor="start" font-weight="400">0.18%</text><path d="M150,494 h38.0 a4,4 0 0 1 4,4 v0.0 a4,4 0 0 1 -4,4 h-38.0 z" fill="#199e70"><title>44.1 → 192 kHz: BASS 16-pt 0.323% of one core</title></path><text x="198.0" y="501.5" font-size="10" fill="#c3c2b7" text-anchor="start" font-weight="400">0.32%</text><path d="M150,504 h608.6 a4,4 0 0 1 4,4 v0.0 a4,4 0 0 1 -4,4 h-608.6 z" fill="#c98500"><title>44.1 → 192 kHz: BASS 256-pt 4.712% of one core</title></path><text x="768.6" y="511.5" font-size="10" fill="#c3c2b7" text-anchor="start" font-weight="400">4.71%</text></svg>