<?xml version="1.0" encoding="UTF-8" standalone="no"?>
<svg
   xmlns:dc="http://purl.org/dc/elements/1.1/"
   xmlns:cc="http://creativecommons.org/ns#"
   xmlns:rdf="http://www.w3.org/1999/02/22-rdf-syntax-ns#"
   xmlns:svg="http://www.w3.org/2000/svg"
   xmlns="http://www.w3.org/2000/svg"
   xmlns:sodipodi="http://sodipodi.sourceforge.net/DTD/sodipodi-0.dtd"
   xmlns:inkscape="http://www.inkscape.org/namespaces/inkscape"
   inkscape:version="1.0beta2 (2b71d25, 2019-12-03)"
   sodipodi:docname="hamburger.svg"
   id="svg16"
   xml:space="preserve"
   viewBox="0 0 100 100"
   version="1.1"
   enable-background="new 0 0 100 100"><metadata
     id="metadata22"><rdf:RDF><cc:Work
         rdf:about=""><dc:format>image/svg+xml</dc:format><dc:type
           rdf:resource="http://purl.org/dc/dcmitype/StillImage" /></cc:Work></rdf:RDF></metadata><defs
     id="defs20" /><sodipodi:namedview
     inkscape:current-layer="svg16"
     inkscape:window-maximized="0"
     inkscape:window-y="23"
     inkscape:window-x="0"
     inkscape:cy="50"
     inkscape:cx="19.590199"
     inkscape:zoom="4.7517576"
     showgrid="false"
     id="namedview18"
     inkscape:window-height="814"
     inkscape:window-width="1438"
     inkscape:pageshadow="2"
     inkscape:pageopacity="0"
     guidetolerance="10"
     gridtolerance="10"
     objecttolerance="10"
     borderopacity="1"
     inkscape:document-rotation="0"
     bordercolor="#666666"
     pagecolor="#ffffff" /><path
     id="path10-4"
     d="m 83.955387,19.985206 c 0,-2.7614 -1.567,-5 -3.5,-5 h -62 c -1.933,0 -3.5,2.2386 -3.5,5 0,2.7614 1.567,5 3.5,5 h 62 c 1.933,0 3.5,-2.2386 3.5,-5 z"
     inkscape:connector-curvature="0"
     style="stroke-width:1.19527" /><path
     id="path12-1"
     d="m 83.955387,39.637984 c 0,-2.7614 -1.567,-5 -3.5,-5 h -62 c -1.933,0 -3.5,2.2386 -3.5,5 0,2.7614 1.567,5 3.5,5 h 62 c 1.933,0 3.5,-2.2386 3.5,-5 z"
     inkscape:connector-curvature="0"
     style="stroke-width:1.19527" /><path
     style="stroke-width:1.19527"
     inkscape:connector-curvature="0"
     d="m 83.955388,59.290767 c 0,-2.7614 -1.566999,-5 -3.5,-5 H 18.455384 c -1.933,0 -3.499999,2.2386 -3.499999,5 0,2.7614 1.566999,5 3.499999,5 h 62.000004 c 1.933001,0 3.5,-2.2386 3.5,-5 z"
     id="path12-1-8" /><path
     style="stroke-width:1.19527"
     inkscape:connector-curvature="0"
     d="m 83.955388,78.943549 c 0,-2.7614 -1.567,-5 -3.5,-5 H 18.455385 c -1.933,0 -3.5,2.2386 -3.5,5 0,2.7614 1.567,5 3.5,5 h 62.000003 c 1.933,0 3.5,-2.2386 3.5,-5 z"
     id="path12-1-83" /></svg>
