<svg xmlns="http://www.w3.org/2000/svg" xmlns:xlink="http://www.w3.org/1999/xlink" version="1.1" x="0px" y="0px" viewBox="0 0 100 100" enable-background="new 0 0 100 100" xml:space="preserve"><g><path d="M83.25,16.167c-1.082-0.625-2.418-0.625-3.5,0L25.995,47.203c-1.083,0.625-1.75,1.781-1.75,3.031   c0,1.25,0.667,2.406,1.75,3.031L79.75,84.301c0.541,0.313,1.146,0.469,1.75,0.469s1.209-0.156,1.75-0.469   C84.333,83.676,85,82.52,85,81.27V19.199C85,17.948,84.333,16.793,83.25,16.167z"/><path d="M18.5,15.5c-1.933,0-3.5,1.567-3.5,3.5v62c0,1.933,1.567,3.5,3.5,3.5S22,82.933,22,81V19C22,17.067,20.433,15.5,18.5,15.5z   "/></g></svg>