<svg xmlns="http://www.w3.org/2000/svg" viewBox="0 0 720 222" width="720" height="222" font-family="-apple-system,BlinkMacSystemFont,Segoe UI,Helvetica,Arial,sans-serif" role="img" aria-label="Library scan (600 files) and waveforms"><style>.bg{fill:#fcfcfb}.t{fill:#0b0b0b}.m{fill:#52514e}.g{stroke:#e4e3df}.a{stroke:#b9b8b2}.b{fill:#c4c3bd}.n{fill:#2a78d6}@media (prefers-color-scheme:dark){.bg{fill:#1a1a19}.t{fill:#ffffff}.m{fill:#c3c2b7}.g{stroke:#2f2f2d}.a{stroke:#555550}.b{fill:#5c5b56}.n{fill:#3987e5}}</style>
<rect class="bg" width="720" height="222" rx="8"/>
<text class="t" x="16" y="26" font-size="15" font-weight="600">Library scan (600 files) and waveforms</text>
<text class="m" x="170" y="58" font-size="11">milliseconds (lower is better)</text>
<rect class="b" x="470" y="17" width="12" height="10" rx="2"/>
<text class="m" x="488" y="26" font-size="12">Before (main)</text>
<rect class="n" x="585" y="17" width="12" height="10" rx="2"/>
<text class="m" x="603" y="26" font-size="12">After (this PR)</text>
<line class="g" x1="170.0" x2="170.0" y1="66" y2="208"/>
<text class="m" x="170.0" y="220" font-size="10" text-anchor="middle">0</text>
<line class="g" x1="250.0" x2="250.0" y1="66" y2="208"/>
<text class="m" x="250.0" y="220" font-size="10" text-anchor="middle">100</text>
<line class="g" x1="330.0" x2="330.0" y1="66" y2="208"/>
<text class="m" x="330.0" y="220" font-size="10" text-anchor="middle">200</text>
<line class="g" x1="410.0" x2="410.0" y1="66" y2="208"/>
<text class="m" x="410.0" y="220" font-size="10" text-anchor="middle">300</text>
<line class="g" x1="490.0" x2="490.0" y1="66" y2="208"/>
<text class="m" x="490.0" y="220" font-size="10" text-anchor="middle">400</text>
<line class="g" x1="570.0" x2="570.0" y1="66" y2="208"/>
<text class="m" x="570.0" y="220" font-size="10" text-anchor="middle">500</text>
<line class="g" x1="650.0" x2="650.0" y1="66" y2="208"/>
<text class="m" x="650.0" y="220" font-size="10" text-anchor="middle">600</text>
<text class="t" x="160" y="91.0" font-size="12" text-anchor="end">First scan</text>
<rect class="b" x="170" y="75" width="392.1" height="11" rx="2"/>
<text class="m" x="568.1" y="85" font-size="11">490</text>
<rect class="n" x="170" y="88" width="348.9" height="11" rx="2"/>
<text class="m" x="524.9" y="98" font-size="11">436</text>
<text class="t" x="160" y="125.0" font-size="12" text-anchor="end">Second scan</text>
<rect class="b" x="170" y="109" width="101.1" height="11" rx="2"/>
<text class="m" x="277.1" y="119" font-size="11">126</text>
<rect class="n" x="170" y="122" width="51.3" height="11" rx="2"/>
<text class="m" x="227.3" y="132" font-size="11">64</text>
<text class="t" x="160" y="159.0" font-size="12" text-anchor="end">Waveform, FLAC 24/192</text>
<rect class="b" x="170" y="143" width="257.3" height="11" rx="2"/>
<text class="m" x="433.3" y="153" font-size="11">322</text>
<rect class="n" x="170" y="156" width="213.8" height="11" rx="2"/>
<text class="m" x="389.8" y="166" font-size="11">267</text>
<text class="t" x="160" y="193.0" font-size="12" text-anchor="end">Waveform, FLAC 24/352.8</text>
<rect class="b" x="170" y="177" width="172.1" height="11" rx="2"/>
<text class="m" x="348.1" y="187" font-size="11">215</text>
<rect class="n" x="170" y="190" width="129.4" height="11" rx="2"/>
<text class="m" x="305.4" y="200" font-size="11">162</text>
</svg>
