<svg xmlns="http://www.w3.org/2000/svg" viewBox="0 0 720 300" width="720" height="300" font-family="-apple-system,BlinkMacSystemFont,Segoe UI,Helvetica,Arial,sans-serif" role="img" aria-label="Playback work, instructions retired">
<style>.bg{fill:#fcfcfb}.t{fill:#0b0b0b}.m{fill:#52514e}.g{stroke:#e4e3df}.a{stroke:#b9b8b2}.s0{stroke:#2a78d6;fill:#2a78d6}.s1{stroke:#eb6834;fill:#eb6834}.s2{stroke:#1baf7a;fill:#1baf7a}.s3{stroke:#eda100;fill:#eda100}@media (prefers-color-scheme:dark){.bg{fill:#1a1a19}.t{fill:#ffffff}.m{fill:#c3c2b7}.g{stroke:#2f2f2d}.a{stroke:#555550}.s0{stroke:#3987e5;fill:#3987e5}.s1{stroke:#d95926;fill:#d95926}.s2{stroke:#199e70;fill:#199e70}.s3{stroke:#c98500;fill:#c98500}}.l{fill:none;stroke-width:2;stroke-linejoin:round;stroke-linecap:round}</style>
<rect class="bg" width="720" height="300" rx="8"/>
<text class="t" x="56" y="24" font-size="15" font-weight="600">Playback work, instructions retired</text>
<text class="m" x="56" y="38" font-size="11">millions a second</text>
<line class="a" x1="56" x2="570" y1="264.0" y2="264.0"/>
<text class="m" x="48" y="268.0" font-size="11" text-anchor="end">0</text>
<line class="g" x1="56" x2="570" y1="209.0" y2="209.0"/>
<text class="m" x="48" y="213.0" font-size="11" text-anchor="end">50</text>
<line class="g" x1="56" x2="570" y1="154.0" y2="154.0"/>
<text class="m" x="48" y="158.0" font-size="11" text-anchor="end">100</text>
<line class="g" x1="56" x2="570" y1="99.0" y2="99.0"/>
<text class="m" x="48" y="103.0" font-size="11" text-anchor="end">150</text>
<line class="g" x1="56" x2="570" y1="44.0" y2="44.0"/>
<text class="m" x="48" y="48.0" font-size="11" text-anchor="end">200</text>
<text class="m" x="92.7" y="280" font-size="11" text-anchor="middle">1.8</text>
<text class="m" x="166.1" y="280" font-size="11" text-anchor="middle">1.9</text>
<text class="m" x="239.6" y="280" font-size="11" text-anchor="middle">1.10</text>
<text class="m" x="313.0" y="280" font-size="11" text-anchor="middle">1.11</text>
<text class="m" x="386.4" y="280" font-size="11" text-anchor="middle">1.12</text>
<text class="m" x="459.9" y="280" font-size="11" text-anchor="middle">1.13</text>
<text class="m" x="533.3" y="280" font-size="11" text-anchor="middle">1.14</text>
<path class="l s0" d="M92.7,192.7 L166.1,192.6 L239.6,192.5 L313.0,192.6 L386.4,204.3 L459.9,204.3 L533.3,229.2"/>
<circle class="s0" cx="92.7" cy="192.7" r="4" stroke="none"><title>MP3 320k: 65 millions a second</title></circle>
<circle class="s0" cx="166.1" cy="192.6" r="4" stroke="none"><title>MP3 320k: 65 millions a second</title></circle>
<circle class="s0" cx="239.6" cy="192.5" r="4" stroke="none"><title>MP3 320k: 65 millions a second</title></circle>
<circle class="s0" cx="313.0" cy="192.6" r="4" stroke="none"><title>MP3 320k: 65 millions a second</title></circle>
<circle class="s0" cx="386.4" cy="204.3" r="4" stroke="none"><title>MP3 320k: 54 millions a second</title></circle>
<circle class="s0" cx="459.9" cy="204.3" r="4" stroke="none"><title>MP3 320k: 54 millions a second</title></circle>
<circle class="s0" cx="533.3" cy="229.2" r="4" stroke="none"><title>MP3 320k: 32 millions a second</title></circle>
<path class="l s1" d="M92.7,192.3 L166.1,192.2 L239.6,192.1 L313.0,192.3 L386.4,204.1 L459.9,204.1 L533.3,217.1"/>
<circle class="s1" cx="92.7" cy="192.3" r="4" stroke="none"><title>FLAC 16/44.1: 65 millions a second</title></circle>
<circle class="s1" cx="166.1" cy="192.2" r="4" stroke="none"><title>FLAC 16/44.1: 65 millions a second</title></circle>
<circle class="s1" cx="239.6" cy="192.1" r="4" stroke="none"><title>FLAC 16/44.1: 65 millions a second</title></circle>
<circle class="s1" cx="313.0" cy="192.3" r="4" stroke="none"><title>FLAC 16/44.1: 65 millions a second</title></circle>
<circle class="s1" cx="386.4" cy="204.1" r="4" stroke="none"><title>FLAC 16/44.1: 54 millions a second</title></circle>
<circle class="s1" cx="459.9" cy="204.1" r="4" stroke="none"><title>FLAC 16/44.1: 54 millions a second</title></circle>
<circle class="s1" cx="533.3" cy="217.1" r="4" stroke="none"><title>FLAC 16/44.1: 43 millions a second</title></circle>
<path class="l s2" d="M92.7,69.6 L166.1,69.7 L239.6,69.6 L313.0,69.8 L386.4,116.7 L459.9,116.8 L533.3,120.3"/>
<circle class="s2" cx="92.7" cy="69.6" r="4" stroke="none"><title>FLAC 24/192: 177 millions a second</title></circle>
<circle class="s2" cx="166.1" cy="69.7" r="4" stroke="none"><title>FLAC 24/192: 177 millions a second</title></circle>
<circle class="s2" cx="239.6" cy="69.6" r="4" stroke="none"><title>FLAC 24/192: 177 millions a second</title></circle>
<circle class="s2" cx="313.0" cy="69.8" r="4" stroke="none"><title>FLAC 24/192: 177 millions a second</title></circle>
<circle class="s2" cx="386.4" cy="116.7" r="4" stroke="none"><title>FLAC 24/192: 134 millions a second</title></circle>
<circle class="s2" cx="459.9" cy="116.8" r="4" stroke="none"><title>FLAC 24/192: 134 millions a second</title></circle>
<circle class="s2" cx="533.3" cy="120.3" r="4" stroke="none"><title>FLAC 24/192: 131 millions a second</title></circle>
<rect class="s2" x="582" y="111.3" width="10" height="3" rx="1.5" stroke="none"/>
<text class="t" x="598" y="116.3" font-size="11">FLAC 24/192</text>
<text class="m" x="598" y="129.3" font-size="11">131</text>
<rect class="s1" x="582" y="208.1" width="10" height="3" rx="1.5" stroke="none"/>
<text class="t" x="598" y="213.1" font-size="11">FLAC 16/44.1</text>
<text class="m" x="598" y="226.1" font-size="11">43</text>
<rect class="s0" x="582" y="236.1" width="10" height="3" rx="1.5" stroke="none"/>
<text class="t" x="598" y="241.1" font-size="11">MP3 320k</text>
<text class="m" x="598" y="254.1" font-size="11">32</text>
</svg>
