<svg xmlns="http://www.w3.org/2000/svg" viewBox="0 0 720 300" width="720" height="300" font-family="-apple-system,BlinkMacSystemFont,Segoe UI,Helvetica,Arial,sans-serif" role="img" aria-label="Playback energy">
<style>.bg{fill:#fcfcfb}.t{fill:#0b0b0b}.m{fill:#52514e}.g{stroke:#e4e3df}.a{stroke:#b9b8b2}.s0{stroke:#2a78d6;fill:#2a78d6}.s1{stroke:#eb6834;fill:#eb6834}.s2{stroke:#1baf7a;fill:#1baf7a}.s3{stroke:#eda100;fill:#eda100}@media (prefers-color-scheme:dark){.bg{fill:#1a1a19}.t{fill:#ffffff}.m{fill:#c3c2b7}.g{stroke:#2f2f2d}.a{stroke:#555550}.s0{stroke:#3987e5;fill:#3987e5}.s1{stroke:#d95926;fill:#d95926}.s2{stroke:#199e70;fill:#199e70}.s3{stroke:#c98500;fill:#c98500}}.l{fill:none;stroke-width:2;stroke-linejoin:round;stroke-linecap:round}</style>
<rect class="bg" width="720" height="300" rx="8"/>
<text class="t" x="56" y="24" font-size="15" font-weight="600">Playback energy</text>
<text class="m" x="56" y="38" font-size="11">mW</text>
<line class="a" x1="56" x2="570" y1="264.0" y2="264.0"/>
<text class="m" x="48" y="268.0" font-size="11" text-anchor="end">0</text>
<line class="g" x1="56" x2="570" y1="227.3" y2="227.3"/>
<text class="m" x="48" y="231.3" font-size="11" text-anchor="end">5</text>
<line class="g" x1="56" x2="570" y1="190.7" y2="190.7"/>
<text class="m" x="48" y="194.7" font-size="11" text-anchor="end">10</text>
<line class="g" x1="56" x2="570" y1="154.0" y2="154.0"/>
<text class="m" x="48" y="158.0" font-size="11" text-anchor="end">15</text>
<line class="g" x1="56" x2="570" y1="117.3" y2="117.3"/>
<text class="m" x="48" y="121.3" font-size="11" text-anchor="end">20</text>
<line class="g" x1="56" x2="570" y1="80.7" y2="80.7"/>
<text class="m" x="48" y="84.7" font-size="11" text-anchor="end">25</text>
<line class="g" x1="56" x2="570" y1="44.0" y2="44.0"/>
<text class="m" x="48" y="48.0" font-size="11" text-anchor="end">30</text>
<text class="m" x="92.7" y="282" font-size="11" text-anchor="middle">1.8</text>
<text class="m" x="166.1" y="282" font-size="11" text-anchor="middle">1.9</text>
<text class="m" x="239.6" y="282" font-size="11" text-anchor="middle">1.10</text>
<text class="m" x="313.0" y="282" font-size="11" text-anchor="middle">1.11</text>
<text class="m" x="386.4" y="282" font-size="11" text-anchor="middle">1.12</text>
<text class="m" x="459.9" y="282" font-size="11" text-anchor="middle">1.13</text>
<text class="m" x="533.3" y="282" font-size="11" text-anchor="middle">1.14</text>
<path class="l s0" d="M92.7,236.8 L166.1,237.5 L239.6,238.5 L313.0,238.7 L386.4,242.9 L459.9,243.0 L533.3,243.1"/>
<circle class="s0" cx="92.7" cy="236.8" r="4" stroke="none"><title>MP3 320k: 3.7 mW</title></circle>
<circle class="s0" cx="166.1" cy="237.5" r="4" stroke="none"><title>MP3 320k: 3.6 mW</title></circle>
<circle class="s0" cx="239.6" cy="238.5" r="4" stroke="none"><title>MP3 320k: 3.5 mW</title></circle>
<circle class="s0" cx="313.0" cy="238.7" r="4" stroke="none"><title>MP3 320k: 3.4 mW</title></circle>
<circle class="s0" cx="386.4" cy="242.9" r="4" stroke="none"><title>MP3 320k: 2.9 mW</title></circle>
<circle class="s0" cx="459.9" cy="243.0" r="4" stroke="none"><title>MP3 320k: 2.9 mW</title></circle>
<circle class="s0" cx="533.3" cy="243.1" r="4" stroke="none"><title>MP3 320k: 2.9 mW</title></circle>
<path class="l s1" d="M92.7,238.5 L166.1,238.4 L239.6,240.4 L313.0,240.6 L386.4,244.0 L459.9,244.4 L533.3,238.5"/>
<circle class="s1" cx="92.7" cy="238.5" r="4" stroke="none"><title>FLAC 16/44.1: 3.5 mW</title></circle>
<circle class="s1" cx="166.1" cy="238.4" r="4" stroke="none"><title>FLAC 16/44.1: 3.5 mW</title></circle>
<circle class="s1" cx="239.6" cy="240.4" r="4" stroke="none"><title>FLAC 16/44.1: 3.2 mW</title></circle>
<circle class="s1" cx="313.0" cy="240.6" r="4" stroke="none"><title>FLAC 16/44.1: 3.2 mW</title></circle>
<circle class="s1" cx="386.4" cy="244.0" r="4" stroke="none"><title>FLAC 16/44.1: 2.7 mW</title></circle>
<circle class="s1" cx="459.9" cy="244.4" r="4" stroke="none"><title>FLAC 16/44.1: 2.7 mW</title></circle>
<circle class="s1" cx="533.3" cy="238.5" r="4" stroke="none"><title>FLAC 16/44.1: 3.5 mW</title></circle>
<path class="l s2" d="M92.7,192.4 L166.1,190.7 L239.6,192.1 L313.0,189.9 L386.4,207.6 L459.9,210.3 L533.3,123.0"/>
<circle class="s2" cx="92.7" cy="192.4" r="4" stroke="none"><title>FLAC 24/192: 9.8 mW</title></circle>
<circle class="s2" cx="166.1" cy="190.7" r="4" stroke="none"><title>FLAC 24/192: 10.0 mW</title></circle>
<circle class="s2" cx="239.6" cy="192.1" r="4" stroke="none"><title>FLAC 24/192: 9.8 mW</title></circle>
<circle class="s2" cx="313.0" cy="189.9" r="4" stroke="none"><title>FLAC 24/192: 10.1 mW</title></circle>
<circle class="s2" cx="386.4" cy="207.6" r="4" stroke="none"><title>FLAC 24/192: 7.7 mW</title></circle>
<circle class="s2" cx="459.9" cy="210.3" r="4" stroke="none"><title>FLAC 24/192: 7.3 mW</title></circle>
<circle class="s2" cx="533.3" cy="123.0" r="4" stroke="none"><title>FLAC 24/192: 19.2 mW</title></circle>
<path class="l s3" d="M92.7,166.1 L166.1,166.6 L239.6,172.3 L313.0,170.5 L386.4,185.2 L459.9,186.3 L533.3,85.9"/>
<circle class="s3" cx="92.7" cy="166.1" r="4" stroke="none"><title>24/192 + all FX: 13.3 mW</title></circle>
<circle class="s3" cx="166.1" cy="166.6" r="4" stroke="none"><title>24/192 + all FX: 13.3 mW</title></circle>
<circle class="s3" cx="239.6" cy="172.3" r="4" stroke="none"><title>24/192 + all FX: 12.5 mW</title></circle>
<circle class="s3" cx="313.0" cy="170.5" r="4" stroke="none"><title>24/192 + all FX: 12.7 mW</title></circle>
<circle class="s3" cx="386.4" cy="185.2" r="4" stroke="none"><title>24/192 + all FX: 10.7 mW</title></circle>
<circle class="s3" cx="459.9" cy="186.3" r="4" stroke="none"><title>24/192 + all FX: 10.6 mW</title></circle>
<circle class="s3" cx="533.3" cy="85.9" r="4" stroke="none"><title>24/192 + all FX: 24.3 mW</title></circle>
<rect class="s3" x="582" y="76.9" width="10" height="3" rx="1.5" stroke="none"/>
<text class="t" x="598" y="81.9" font-size="11">24/192 + all FX</text>
<text class="m" x="598" y="94.9" font-size="11">24.3</text>
<rect class="s2" x="582" y="114.0" width="10" height="3" rx="1.5" stroke="none"/>
<text class="t" x="598" y="119.0" font-size="11">FLAC 24/192</text>
<text class="m" x="598" y="132.0" font-size="11">19.2</text>
<rect class="s1" x="582" y="229.5" width="10" height="3" rx="1.5" stroke="none"/>
<text class="t" x="598" y="234.5" font-size="11">FLAC 16/44.1</text>
<text class="m" x="598" y="247.5" font-size="11">3.5</text>
<rect class="s0" x="582" y="257.5" width="10" height="3" rx="1.5" stroke="none"/>
<text class="t" x="598" y="262.5" font-size="11">MP3 320k</text>
<text class="m" x="598" y="275.5" font-size="11">2.9</text>
</svg>
